<mxfile host="65bd71144e">
    <diagram id="qAJNVAeYL8XGyXcCz23-" name="Page-1">
        <mxGraphModel dx="2083" dy="2276" grid="1" gridSize="10" guides="1" tooltips="1" connect="1" arrows="1" fold="1" page="1" pageScale="1" pageWidth="827" pageHeight="1169" background="#ffffff" math="0" shadow="0">
            <root>
                <mxCell id="0"/>
                <mxCell id="1" parent="0"/>
                <mxCell id="3" value="index.html" style="swimlane;strokeColor=#005700;strokeWidth=3;fillColor=#008a00;fontColor=#ffffff;" parent="1" vertex="1">
                    <mxGeometry x="50" y="130" width="460" height="510" as="geometry"/>
                </mxCell>
                <mxCell id="4" value="head" style="whiteSpace=wrap;html=1;" parent="3" vertex="1">
                    <mxGeometry x="10" y="30" width="440" height="30" as="geometry"/>
                </mxCell>
                <mxCell id="21" value="body" style="swimlane;fontStyle=0;childLayout=stackLayout;horizontal=1;startSize=30;horizontalStack=0;resizeParent=1;resizeParentMax=0;resizeLast=0;collapsible=1;marginBottom=0;" parent="3" vertex="1">
                    <mxGeometry x="10" y="70" width="440" height="30" as="geometry"/>
                </mxCell>
                <mxCell id="44" value="&lt;span style=&quot;color: rgb(255 , 255 , 255)&quot;&gt;buttonBDDCreator.mainTabLink&lt;/span&gt;" style="rounded=1;whiteSpace=wrap;html=1;fillColor=#a20025;fontColor=#ffffff;strokeColor=#6F0000;" parent="3" vertex="1">
                    <mxGeometry x="10" y="120" width="190" height="60" as="geometry"/>
                </mxCell>
                <mxCell id="45" value="&lt;span style=&quot;color: rgb(255 , 255 , 255)&quot;&gt;buttonJODEL.mainTablink&lt;/span&gt;" style="rounded=1;whiteSpace=wrap;html=1;fillColor=#a20025;fontColor=#ffffff;strokeColor=#6F0000;" parent="3" vertex="1">
                    <mxGeometry x="210" y="120" width="230" height="60" as="geometry"/>
                </mxCell>
                <mxCell id="30" value="div#Jodel.mainTabContent" style="shape=process;whiteSpace=wrap;html=1;backgroundOutline=1;fillColor=#000033;fontColor=#ffffff;strokeColor=#001DBC;" parent="3" vertex="1">
                    <mxGeometry x="10" y="190" width="190" height="130" as="geometry"/>
                </mxCell>
                <mxCell id="31" value="div#BDDCreator.mainTabContent" style="shape=process;whiteSpace=wrap;html=1;backgroundOutline=1;fillColor=#000033;fontColor=#ffffff;strokeColor=#001DBC;" parent="3" vertex="1">
                    <mxGeometry x="210" y="190" width="230" height="130" as="geometry"/>
                </mxCell>
                <mxCell id="11" value="Jodel.html" style="swimlane;strokeColor=#005700;strokeWidth=3;fillColor=#008a00;fontColor=#ffffff;spacingLeft=3;" parent="1" vertex="1">
                    <mxGeometry x="-200" y="630" width="1190" height="820" as="geometry"/>
                </mxCell>
                <mxCell id="12" value="body&lt;br&gt;" style="whiteSpace=wrap;html=1;align=left;verticalAlign=top;fontStyle=1" parent="11" vertex="1">
                    <mxGeometry x="10" y="70" width="1170" height="740" as="geometry"/>
                </mxCell>
                <mxCell id="13" value="head" style="whiteSpace=wrap;html=1;align=left;verticalAlign=top;fontStyle=1" parent="11" vertex="1">
                    <mxGeometry x="10" y="30" width="1170" height="40" as="geometry"/>
                </mxCell>
                <mxCell id="67" value="div.JodelGrid" style="rounded=0;html=1;fillColor=#000033;fontColor=#ffffff;strokeColor=#001DBC;spacing=0;spacingTop=0;spacingLeft=4;whiteSpace=wrap;align=left;verticalAlign=top;" parent="11" vertex="1">
                    <mxGeometry x="20" y="170" width="1130" height="560" as="geometry"/>
                </mxCell>
                <mxCell id="68" value="input#fileInput" style="shape=hexagon;perimeter=hexagonPerimeter2;whiteSpace=wrap;html=1;fixedSize=1;fontColor=#ffffff;strokeColor=#432D57;strokeWidth=3;fillColor=#76608a;" parent="11" vertex="1">
                    <mxGeometry x="30" y="120" width="120" height="30" as="geometry"/>
                </mxCell>
                <mxCell id="69" value="input#fileInput2" style="shape=hexagon;perimeter=hexagonPerimeter2;whiteSpace=wrap;html=1;fixedSize=1;fontColor=#ffffff;strokeColor=#432D57;strokeWidth=3;fillColor=#76608a;" parent="11" vertex="1">
                    <mxGeometry x="170" y="120" width="120" height="30" as="geometry"/>
                </mxCell>
                <mxCell id="70" value="div.sidebar" style="rounded=0;whiteSpace=wrap;html=1;fillColor=#000033;fontColor=#ffffff;strokeColor=#001DBC;verticalAlign=top;align=left;spacingLeft=4;" parent="11" vertex="1">
                    <mxGeometry x="30" y="200" width="250" height="520" as="geometry"/>
                </mxCell>
                <mxCell id="71" value="div.displayZone&lt;span style=&quot;color: rgba(0 , 0 , 0 , 0) ; font-family: monospace ; font-size: 0px&quot;&gt;%3CmxGraphModel%3E%3Croot%3E%3CmxCell%20id%3D%220%22%2F%3E%3CmxCell%20id%3D%221%22%20parent%3D%220%22%2F%3E%3CmxCell%20id%3D%222%22%20value%3D%22div.sidebar%22%20style%3D%22rounded%3D0%3BwhiteSpace%3Dwrap%3Bhtml%3D1%3BfillColor%3D%23000033%3BfontColor%3D%23ffffff%3BstrokeColor%3D%23001DBC%3BverticalAlign%3Dtop%3Balign%3Dleft%3BspacingLeft%3D4%3B%22%20vertex%3D%221%22%20parent%3D%221%22%3E%3CmxGeometry%20x%3D%2290%22%20y%3D%22870%22%20width%3D%22110%22%20height%3D%22250%22%20as%3D%22geometry%22%2F%3E%3C%2FmxCell%3E%3C%2Froot%3E%3C%2FmxGraphModel%3E&lt;/span&gt;" style="rounded=0;whiteSpace=wrap;html=1;fillColor=#000033;fontColor=#ffffff;strokeColor=#001DBC;verticalAlign=top;align=left;spacingLeft=4;" parent="11" vertex="1">
                    <mxGeometry x="290" y="190" width="690" height="420" as="geometry"/>
                </mxCell>
                <mxCell id="72" value="div.ParameterBar" style="rounded=0;whiteSpace=wrap;html=1;fillColor=#000033;fontColor=#ffffff;strokeColor=#001DBC;verticalAlign=top;align=left;spacingLeft=4;" parent="11" vertex="1">
                    <mxGeometry x="1000" y="190" width="110" height="420" as="geometry"/>
                </mxCell>
                <mxCell id="73" value="script" style="shape=parallelogram;perimeter=parallelogramPerimeter;whiteSpace=wrap;html=1;fixedSize=1;strokeColor=#B09500;strokeWidth=3;fillColor=#e3c800;fontColor=#000000;" parent="11" vertex="1">
                    <mxGeometry x="20" y="740" width="120" height="30" as="geometry"/>
                </mxCell>
                <mxCell id="74" value="#addPointset.btn-2" style="rounded=1;whiteSpace=wrap;html=1;fillColor=#a20025;fontColor=#ffffff;strokeColor=#6F0000;" parent="11" vertex="1">
                    <mxGeometry x="37.5" y="230" width="122.5" height="20" as="geometry"/>
                </mxCell>
                <mxCell id="75" value="#addSurface.btn-2" style="rounded=1;whiteSpace=wrap;html=1;fillColor=#a20025;fontColor=#ffffff;strokeColor=#6F0000;" parent="11" vertex="1">
                    <mxGeometry x="38.75" y="260" width="110" height="20" as="geometry"/>
                </mxCell>
                <mxCell id="76" value="#exportSample.btn-2" style="rounded=1;whiteSpace=wrap;html=1;fillColor=#a20025;fontColor=#ffffff;strokeColor=#6F0000;" parent="11" vertex="1">
                    <mxGeometry x="38.75" y="290" width="130" height="20" as="geometry"/>
                </mxCell>
                <mxCell id="79" value="#filter1" style="swimlane;fontStyle=0;childLayout=stackLayout;horizontal=1;startSize=30;horizontalStack=0;resizeParent=1;resizeParentMax=0;resizeLast=0;collapsible=1;marginBottom=0;strokeColor=#996185;strokeWidth=3;fillColor=#e6d0de;gradientColor=#d5739d;" parent="11" vertex="1">
                    <mxGeometry x="47.5" y="530" width="92.5" height="90" as="geometry"/>
                </mxCell>
                <mxCell id="80" value="header_1" style="text;strokeColor=#ae4132;fillColor=#fad9d5;align=left;verticalAlign=middle;spacingLeft=4;spacingRight=4;overflow=hidden;points=[[0,0.5],[1,0.5]];portConstraint=eastwest;rotatable=0;fontColor=#000000;" parent="79" vertex="1">
                    <mxGeometry y="30" width="92.5" height="20" as="geometry"/>
                </mxCell>
                <mxCell id="81" value="header_2" style="text;strokeColor=#ae4132;fillColor=#fad9d5;align=left;verticalAlign=middle;spacingLeft=4;spacingRight=4;overflow=hidden;points=[[0,0.5],[1,0.5]];portConstraint=eastwest;rotatable=0;fontColor=#000000;" parent="79" vertex="1">
                    <mxGeometry y="50" width="92.5" height="20" as="geometry"/>
                </mxCell>
                <mxCell id="82" value="header_n" style="text;strokeColor=#ae4132;fillColor=#fad9d5;align=left;verticalAlign=middle;spacingLeft=4;spacingRight=4;overflow=hidden;points=[[0,0.5],[1,0.5]];portConstraint=eastwest;rotatable=0;fontColor=#000000;" parent="79" vertex="1">
                    <mxGeometry y="70" width="92.5" height="20" as="geometry"/>
                </mxCell>
                <mxCell id="83" value="#subfilter1" style="swimlane;fontStyle=0;childLayout=stackLayout;horizontal=1;startSize=30;horizontalStack=0;resizeParent=1;resizeParentMax=0;resizeLast=0;collapsible=1;marginBottom=0;strokeColor=#996185;strokeWidth=3;fillColor=#e6d0de;gradientColor=#d5739d;" parent="11" vertex="1">
                    <mxGeometry x="160" y="530" width="100" height="90" as="geometry"/>
                </mxCell>
                <mxCell id="84" value="value_1" style="text;strokeColor=#ae4132;fillColor=#fad9d5;align=left;verticalAlign=middle;spacingLeft=4;spacingRight=4;overflow=hidden;points=[[0,0.5],[1,0.5]];portConstraint=eastwest;rotatable=0;fontColor=#000000;" parent="83" vertex="1">
                    <mxGeometry y="30" width="100" height="20" as="geometry"/>
                </mxCell>
                <mxCell id="85" value="value_2" style="text;strokeColor=#ae4132;fillColor=#fad9d5;align=left;verticalAlign=middle;spacingLeft=4;spacingRight=4;overflow=hidden;points=[[0,0.5],[1,0.5]];portConstraint=eastwest;rotatable=0;fontColor=#000000;" parent="83" vertex="1">
                    <mxGeometry y="50" width="100" height="20" as="geometry"/>
                </mxCell>
                <mxCell id="86" value="value_3" style="text;strokeColor=#ae4132;fillColor=#fad9d5;align=left;verticalAlign=middle;spacingLeft=4;spacingRight=4;overflow=hidden;points=[[0,0.5],[1,0.5]];portConstraint=eastwest;rotatable=0;fontColor=#000000;" parent="83" vertex="1">
                    <mxGeometry y="70" width="100" height="20" as="geometry"/>
                </mxCell>
                <mxCell id="87" value="selectAll" style="rounded=1;whiteSpace=wrap;html=1;fillColor=#a20025;fontColor=#ffffff;strokeColor=#6F0000;" parent="11" vertex="1">
                    <mxGeometry x="190" y="470" width="70" height="20" as="geometry"/>
                </mxCell>
                <mxCell id="88" value="#analysisSelect" style="swimlane;fontStyle=0;childLayout=stackLayout;horizontal=1;startSize=30;horizontalStack=0;resizeParent=1;resizeParentMax=0;resizeLast=0;collapsible=1;marginBottom=0;strokeColor=#996185;strokeWidth=3;fillColor=#e6d0de;gradientColor=#d5739d;" parent="11" vertex="1">
                    <mxGeometry x="48.75" y="420" width="130" height="90" as="geometry"/>
                </mxCell>
                <mxCell id="89" value="METADATA" style="text;strokeColor=#ae4132;fillColor=#fad9d5;align=left;verticalAlign=middle;spacingLeft=4;spacingRight=4;overflow=hidden;points=[[0,0.5],[1,0.5]];portConstraint=eastwest;rotatable=0;fontColor=#000000;" parent="88" vertex="1">
                    <mxGeometry y="30" width="130" height="20" as="geometry"/>
                </mxCell>
                <mxCell id="94" value="ANALYSIS_1" style="text;strokeColor=#ae4132;fillColor=#fad9d5;align=left;verticalAlign=middle;spacingLeft=4;spacingRight=4;overflow=hidden;points=[[0,0.5],[1,0.5]];portConstraint=eastwest;rotatable=0;fontColor=#000000;" parent="88" vertex="1">
                    <mxGeometry y="50" width="130" height="20" as="geometry"/>
                </mxCell>
                <mxCell id="93" value="ANALYSIS_2" style="text;strokeColor=#ae4132;fillColor=#fad9d5;align=left;verticalAlign=middle;spacingLeft=4;spacingRight=4;overflow=hidden;points=[[0,0.5],[1,0.5]];portConstraint=eastwest;rotatable=0;fontColor=#000000;" parent="88" vertex="1">
                    <mxGeometry y="70" width="130" height="20" as="geometry"/>
                </mxCell>
                <mxCell id="95" value="miniInfoDisp" style="shape=note;whiteSpace=wrap;html=1;backgroundOutline=1;darkOpacity=0.05;strokeColor=#10739e;strokeWidth=3;fillColor=#b1ddf0;size=16;fontColor=#000000;" parent="11" vertex="1">
                    <mxGeometry x="48.75" y="650" width="116.25" height="20" as="geometry"/>
                </mxCell>
                <mxCell id="97" value="miniInfoDisp2" style="shape=note;whiteSpace=wrap;html=1;backgroundOutline=1;darkOpacity=0.05;strokeColor=#10739e;strokeWidth=3;fillColor=#b1ddf0;size=16;fontColor=#000000;" parent="11" vertex="1">
                    <mxGeometry x="48.75" y="680" width="116.25" height="20" as="geometry"/>
                </mxCell>
                <mxCell id="103" value="#table-zone" style="rounded=0;whiteSpace=wrap;html=1;fillColor=#000033;fontColor=#ffffff;strokeColor=#001DBC;verticalAlign=top;align=left;spacingLeft=4;" parent="11" vertex="1">
                    <mxGeometry x="40" y="330" width="230" height="70" as="geometry"/>
                </mxCell>
                <mxCell id="104" value="#file_table.fl-table" style="shape=internalStorage;whiteSpace=wrap;html=1;backgroundOutline=1;strokeColor=#82b366;strokeWidth=3;fillColor=#d5e8d4;gradientColor=#97d077;" parent="11" vertex="1">
                    <mxGeometry x="60" y="360" width="190" height="30" as="geometry"/>
                </mxCell>
                <mxCell id="108" value="div.tab" style="rounded=0;whiteSpace=wrap;html=1;fillColor=#000033;fontColor=#ffffff;strokeColor=#001DBC;verticalAlign=top;align=left;spacingLeft=4;" parent="11" vertex="1">
                    <mxGeometry x="310" y="230" width="340" height="60" as="geometry"/>
                </mxCell>
                <mxCell id="109" value="button.tablinks" style="rounded=1;whiteSpace=wrap;html=1;fillColor=#a20025;fontColor=#ffffff;strokeColor=#6F0000;" parent="11" vertex="1">
                    <mxGeometry x="317.5" y="260" width="102.5" height="20" as="geometry"/>
                </mxCell>
                <mxCell id="110" value="button.tablinks" style="rounded=1;whiteSpace=wrap;html=1;fillColor=#a20025;fontColor=#ffffff;strokeColor=#6F0000;" parent="11" vertex="1">
                    <mxGeometry x="428.75" y="260" width="102.5" height="20" as="geometry"/>
                </mxCell>
                <mxCell id="111" value="button.tablinks" style="rounded=1;whiteSpace=wrap;html=1;fillColor=#a20025;fontColor=#ffffff;strokeColor=#6F0000;" parent="11" vertex="1">
                    <mxGeometry x="540" y="260" width="102.5" height="20" as="geometry"/>
                </mxCell>
                <mxCell id="112" value="div#Jodel-tab1.tabcontent" style="rounded=0;whiteSpace=wrap;html=1;fillColor=#000033;fontColor=#ffffff;strokeColor=#001DBC;verticalAlign=top;align=left;spacingLeft=4;" parent="11" vertex="1">
                    <mxGeometry x="310" y="304" width="190" height="116" as="geometry"/>
                </mxCell>
                <mxCell id="113" value="div#Jodel-tab2.tabcontent" style="rounded=0;whiteSpace=wrap;html=1;fillColor=#000033;fontColor=#ffffff;strokeColor=#001DBC;verticalAlign=top;align=left;spacingLeft=4;" parent="11" vertex="1">
                    <mxGeometry x="510" y="303" width="240" height="117" as="geometry"/>
                </mxCell>
                <mxCell id="114" value="div#Jodel-tab3.tabcontent" style="rounded=0;whiteSpace=wrap;html=1;fillColor=#000033;fontColor=#ffffff;strokeColor=#001DBC;verticalAlign=top;align=left;spacingLeft=4;" parent="11" vertex="1">
                    <mxGeometry x="770" y="303" width="190" height="207" as="geometry"/>
                </mxCell>
                <mxCell id="115" value="div#chart1" style="rounded=0;whiteSpace=wrap;html=1;fillColor=#000033;fontColor=#ffffff;strokeColor=#001DBC;verticalAlign=top;align=left;spacingLeft=4;" parent="11" vertex="1">
                    <mxGeometry x="320" y="330" width="150" height="80" as="geometry"/>
                </mxCell>
                <mxCell id="116" value="div.wrapperMapDisplay" style="rounded=0;whiteSpace=wrap;html=1;fillColor=#000033;fontColor=#ffffff;strokeColor=#001DBC;verticalAlign=top;align=left;spacingLeft=4;" parent="11" vertex="1">
                    <mxGeometry x="520" y="329" width="220" height="81" as="geometry"/>
                </mxCell>
                <mxCell id="117" value="div#subchart31" style="rounded=0;whiteSpace=wrap;html=1;fillColor=#000033;fontColor=#ffffff;strokeColor=#001DBC;verticalAlign=top;align=left;spacingLeft=4;" parent="11" vertex="1">
                    <mxGeometry x="531.25" y="363" width="98.75" height="30" as="geometry"/>
                </mxCell>
                <mxCell id="118" value="div#subchart32" style="rounded=0;whiteSpace=wrap;html=1;fillColor=#000033;fontColor=#ffffff;strokeColor=#001DBC;verticalAlign=top;align=left;spacingLeft=4;" parent="11" vertex="1">
                    <mxGeometry x="640" y="363" width="90" height="30" as="geometry"/>
                </mxCell>
                <mxCell id="120" value="#densityX" style="swimlane;fontStyle=0;childLayout=stackLayout;horizontal=1;startSize=30;horizontalStack=0;resizeParent=1;resizeParentMax=0;resizeLast=0;collapsible=1;marginBottom=0;strokeColor=#996185;strokeWidth=3;fillColor=#e6d0de;gradientColor=#d5739d;" parent="11" vertex="1">
                    <mxGeometry x="780" y="333" width="70" height="90" as="geometry"/>
                </mxCell>
                <mxCell id="121" value="latitude" style="text;strokeColor=#ae4132;fillColor=#fad9d5;align=left;verticalAlign=middle;spacingLeft=4;spacingRight=4;overflow=hidden;points=[[0,0.5],[1,0.5]];portConstraint=eastwest;rotatable=0;fontColor=#000000;" parent="120" vertex="1">
                    <mxGeometry y="30" width="70" height="20" as="geometry"/>
                </mxCell>
                <mxCell id="122" value="longitude" style="text;strokeColor=#ae4132;fillColor=#fad9d5;align=left;verticalAlign=middle;spacingLeft=4;spacingRight=4;overflow=hidden;points=[[0,0.5],[1,0.5]];portConstraint=eastwest;rotatable=0;fontColor=#000000;" parent="120" vertex="1">
                    <mxGeometry y="50" width="70" height="20" as="geometry"/>
                </mxCell>
                <mxCell id="123" value="altitude" style="text;strokeColor=#ae4132;fillColor=#fad9d5;align=left;verticalAlign=middle;spacingLeft=4;spacingRight=4;overflow=hidden;points=[[0,0.5],[1,0.5]];portConstraint=eastwest;rotatable=0;fontColor=#000000;" parent="120" vertex="1">
                    <mxGeometry y="70" width="70" height="20" as="geometry"/>
                </mxCell>
                <mxCell id="124" value="#densityY" style="swimlane;fontStyle=0;childLayout=stackLayout;horizontal=1;startSize=30;horizontalStack=0;resizeParent=1;resizeParentMax=0;resizeLast=0;collapsible=1;marginBottom=0;strokeColor=#996185;strokeWidth=3;fillColor=#e6d0de;gradientColor=#d5739d;" parent="11" vertex="1">
                    <mxGeometry x="865" y="333" width="70" height="90" as="geometry"/>
                </mxCell>
                <mxCell id="125" value="latitude" style="text;strokeColor=#ae4132;fillColor=#fad9d5;align=left;verticalAlign=middle;spacingLeft=4;spacingRight=4;overflow=hidden;points=[[0,0.5],[1,0.5]];portConstraint=eastwest;rotatable=0;fontColor=#000000;" parent="124" vertex="1">
                    <mxGeometry y="30" width="70" height="20" as="geometry"/>
                </mxCell>
                <mxCell id="126" value="longitude" style="text;strokeColor=#ae4132;fillColor=#fad9d5;align=left;verticalAlign=middle;spacingLeft=4;spacingRight=4;overflow=hidden;points=[[0,0.5],[1,0.5]];portConstraint=eastwest;rotatable=0;fontColor=#000000;" parent="124" vertex="1">
                    <mxGeometry y="50" width="70" height="20" as="geometry"/>
                </mxCell>
                <mxCell id="127" value="altitude" style="text;strokeColor=#ae4132;fillColor=#fad9d5;align=left;verticalAlign=middle;spacingLeft=4;spacingRight=4;overflow=hidden;points=[[0,0.5],[1,0.5]];portConstraint=eastwest;rotatable=0;fontColor=#000000;" parent="124" vertex="1">
                    <mxGeometry y="70" width="70" height="20" as="geometry"/>
                </mxCell>
                <mxCell id="128" value="div#chart2" style="rounded=0;whiteSpace=wrap;html=1;fillColor=#000033;fontColor=#ffffff;strokeColor=#001DBC;verticalAlign=top;align=left;spacingLeft=4;" parent="11" vertex="1">
                    <mxGeometry x="780" y="440" width="160" height="50" as="geometry"/>
                </mxCell>
                <mxCell id="14" value="BDDCreator.html" style="swimlane;strokeWidth=3;strokeColor=#005700;fillColor=#008a00;fontColor=#ffffff;" parent="1" vertex="1">
                    <mxGeometry x="-240" y="270" width="200" height="200" as="geometry"/>
                </mxCell>
                <mxCell id="15" value="body&lt;br&gt;" style="whiteSpace=wrap;html=1;" parent="14" vertex="1">
                    <mxGeometry x="10" y="70" width="180" height="30" as="geometry"/>
                </mxCell>
                <mxCell id="16" value="head" style="whiteSpace=wrap;html=1;" parent="14" vertex="1">
                    <mxGeometry x="10" y="30" width="180" height="30" as="geometry"/>
                </mxCell>
                <mxCell id="49" value="html file" style="swimlane;strokeColor=#005700;strokeWidth=3;fillColor=#008a00;fontColor=#ffffff;" parent="1" vertex="1">
                    <mxGeometry x="-280" y="-260" width="446.25" height="290" as="geometry"/>
                </mxCell>
                <mxCell id="46" value="button" style="rounded=1;whiteSpace=wrap;html=1;fillColor=#a20025;fontColor=#ffffff;strokeColor=#6F0000;" parent="49" vertex="1">
                    <mxGeometry x="40" y="40" width="70" height="30" as="geometry"/>
                </mxCell>
                <mxCell id="48" value="div" style="rounded=0;whiteSpace=wrap;html=1;fillColor=#000033;fontColor=#ffffff;strokeColor=#001DBC;" parent="49" vertex="1">
                    <mxGeometry x="40" y="80" width="70" height="40" as="geometry"/>
                </mxCell>
                <mxCell id="51" value="script" style="shape=parallelogram;perimeter=parallelogramPerimeter;whiteSpace=wrap;html=1;fixedSize=1;strokeColor=#B09500;strokeWidth=3;fillColor=#e3c800;fontColor=#000000;" parent="49" vertex="1">
                    <mxGeometry x="30" y="140" width="90" height="30" as="geometry"/>
                </mxCell>
                <mxCell id="52" value="select" style="swimlane;fontStyle=0;childLayout=stackLayout;horizontal=1;startSize=30;horizontalStack=0;resizeParent=1;resizeParentMax=0;resizeLast=0;collapsible=1;marginBottom=0;strokeColor=#996185;strokeWidth=3;fillColor=#e6d0de;gradientColor=#d5739d;fontColor=#000000;" parent="49" vertex="1">
                    <mxGeometry x="140" y="40" width="70" height="90" as="geometry"/>
                </mxCell>
                <mxCell id="53" value="option1" style="text;strokeColor=#ae4132;fillColor=#fad9d5;align=left;verticalAlign=middle;spacingLeft=4;spacingRight=4;overflow=hidden;points=[[0,0.5],[1,0.5]];portConstraint=eastwest;rotatable=0;fontColor=#000000;" parent="52" vertex="1">
                    <mxGeometry y="30" width="70" height="20" as="geometry"/>
                </mxCell>
                <mxCell id="54" value="option2" style="text;strokeColor=#ae4132;fillColor=#fad9d5;align=left;verticalAlign=middle;spacingLeft=4;spacingRight=4;overflow=hidden;points=[[0,0.5],[1,0.5]];portConstraint=eastwest;rotatable=0;fontColor=#000000;" parent="52" vertex="1">
                    <mxGeometry y="50" width="70" height="20" as="geometry"/>
                </mxCell>
                <mxCell id="55" value="option3" style="text;strokeColor=#ae4132;fillColor=#fad9d5;align=left;verticalAlign=middle;spacingLeft=4;spacingRight=4;overflow=hidden;points=[[0,0.5],[1,0.5]];portConstraint=eastwest;rotatable=0;fontColor=#000000;" parent="52" vertex="1">
                    <mxGeometry y="70" width="70" height="20" as="geometry"/>
                </mxCell>
                <mxCell id="66" value="input" style="shape=hexagon;perimeter=hexagonPerimeter2;whiteSpace=wrap;html=1;fixedSize=1;fontColor=#ffffff;strokeColor=#432D57;strokeWidth=3;fillColor=#76608a;" parent="49" vertex="1">
                    <mxGeometry x="35" y="190" width="80" height="30" as="geometry"/>
                </mxCell>
                <mxCell id="98" value="&lt;font color=&quot;#000000&quot;&gt;table&lt;/font&gt;" style="shape=internalStorage;whiteSpace=wrap;html=1;backgroundOutline=1;strokeColor=#82b366;strokeWidth=3;fillColor=#d5e8d4;gradientColor=#97d077;" parent="49" vertex="1">
                    <mxGeometry x="230" y="50" width="80" height="50" as="geometry"/>
                </mxCell>
                <mxCell id="99" value="p" style="shape=note;whiteSpace=wrap;html=1;backgroundOutline=1;darkOpacity=0.05;strokeColor=#10739e;strokeWidth=3;fillColor=#b1ddf0;size=16;fontColor=#000000;" parent="49" vertex="1">
                    <mxGeometry x="45" y="240" width="70" height="30" as="geometry"/>
                </mxCell>
                <mxCell id="50" value="javascript file" style="swimlane;strokeColor=#B09500;strokeWidth=3;fillColor=#e3c800;fontColor=#000000;" parent="1" vertex="1">
                    <mxGeometry x="310" y="-400" width="280" height="200" as="geometry"/>
                </mxCell>
                <mxCell id="56" value="function" style="shape=parallelogram;perimeter=parallelogramPerimeter;whiteSpace=wrap;html=1;fixedSize=1;strokeColor=#C73500;strokeWidth=3;fillColor=#fa6800;fontColor=#000000;fontStyle=2" parent="50" vertex="1">
                    <mxGeometry x="90" y="50" width="120" height="30" as="geometry"/>
                </mxCell>
                <mxCell id="57" value="dexie database" style="shape=cylinder3;whiteSpace=wrap;html=1;boundedLbl=1;backgroundOutline=1;size=15;strokeColor=#666666;strokeWidth=3;fillColor=#f5f5f5;fontColor=#333333;" parent="50" vertex="1">
                    <mxGeometry x="10" y="80" width="70" height="80" as="geometry"/>
                </mxCell>
                <mxCell id="58" value="&lt;font color=&quot;#0d0d0d&quot;&gt;dexie store&lt;/font&gt;" style="shape=cylinder3;whiteSpace=wrap;html=1;boundedLbl=1;backgroundOutline=1;size=15;strokeColor=#6c8ebf;strokeWidth=3;fillColor=#dae8fc;" parent="50" vertex="1">
                    <mxGeometry x="90" y="100" width="60" height="60" as="geometry"/>
                </mxCell>
                <mxCell id="60" value="" style="endArrow=classic;html=1;fontColor=#0D0D0D;strokeWidth=6;exitX=1;exitY=0.5;exitDx=0;exitDy=0;fillColor=#fa6800;strokeColor=#C73500;" parent="50" source="56" edge="1">
                    <mxGeometry width="50" height="50" relative="1" as="geometry">
                        <mxPoint x="160" y="60" as="sourcePoint"/>
                        <mxPoint x="270.3333333333333" y="65" as="targetPoint"/>
                    </mxGeometry>
                </mxCell>
                <mxCell id="59" value="If" style="rhombus;whiteSpace=wrap;html=1;fontColor=#ffffff;strokeColor=#2D7600;strokeWidth=3;fillColor=#60a917;" parent="1" vertex="1">
                    <mxGeometry x="620" y="-400" width="80" height="80" as="geometry"/>
                </mxCell>
                <mxCell id="64" value="" style="endArrow=classic;html=1;fontColor=#0D0D0D;strokeWidth=6;fillColor=#fa6800;strokeColor=#C73500;" parent="1" edge="1">
                    <mxGeometry width="50" height="50" relative="1" as="geometry">
                        <mxPoint x="340" y="-335" as="sourcePoint"/>
                        <mxPoint x="410" y="-335" as="targetPoint"/>
                    </mxGeometry>
                </mxCell>
            </root>
        </mxGraphModel>
    </diagram>
</mxfile>